<mxfile host="app.diagrams.net" modified="2024-05-11T09:36:00.555Z" agent="Mozilla/5.0 (Windows NT 10.0; Win64; x64) AppleWebKit/537.36 (KHTML, like Gecko) Chrome/124.0.0.0 Safari/537.36 Edg/124.0.0.0" etag="28CZkJwoZQV1HfzLgJ3m" version="24.4.0" type="github">
  <diagram name="Page-1" id="7xmrUpdxSFDJT1rBPeir">
    <mxGraphModel dx="1125" dy="685" grid="1" gridSize="10" guides="1" tooltips="1" connect="1" arrows="1" fold="1" page="1" pageScale="1" pageWidth="850" pageHeight="1100" math="0" shadow="0">
      <root>
        <mxCell id="0" />
        <mxCell id="1" parent="0" />
        <mxCell id="64HjRkXqTfzI0ds8lcN4-2" value="" style="whiteSpace=wrap;html=1;aspect=fixed;" vertex="1" parent="1">
          <mxGeometry x="330" y="120" width="630" height="630" as="geometry" />
        </mxCell>
        <mxCell id="64HjRkXqTfzI0ds8lcN4-3" value="Admin&lt;div&gt;&lt;br&gt;&lt;/div&gt;" style="shape=umlActor;verticalLabelPosition=bottom;verticalAlign=top;html=1;outlineConnect=0;" vertex="1" parent="1">
          <mxGeometry x="80" y="260" width="30" height="60" as="geometry" />
        </mxCell>
        <mxCell id="64HjRkXqTfzI0ds8lcN4-4" value="Interns" style="shape=umlActor;verticalLabelPosition=bottom;verticalAlign=top;html=1;outlineConnect=0;" vertex="1" parent="1">
          <mxGeometry x="150" y="470" width="30" height="60" as="geometry" />
        </mxCell>
        <mxCell id="64HjRkXqTfzI0ds8lcN4-5" value="Actor" style="shape=umlActor;verticalLabelPosition=bottom;verticalAlign=top;html=1;outlineConnect=0;" vertex="1" parent="1">
          <mxGeometry x="1110" y="260" width="30" height="60" as="geometry" />
        </mxCell>
        <mxCell id="64HjRkXqTfzI0ds8lcN4-6" value="Actor" style="shape=umlActor;verticalLabelPosition=bottom;verticalAlign=top;html=1;outlineConnect=0;" vertex="1" parent="1">
          <mxGeometry x="1110" y="440" width="30" height="60" as="geometry" />
        </mxCell>
        <mxCell id="64HjRkXqTfzI0ds8lcN4-7" value="HR Managers" style="shape=umlActor;verticalLabelPosition=bottom;verticalAlign=top;html=1;outlineConnect=0;" vertex="1" parent="1">
          <mxGeometry x="180" y="800" width="30" height="60" as="geometry" />
        </mxCell>
        <mxCell id="64HjRkXqTfzI0ds8lcN4-10" value="User Register&lt;div&gt;&lt;br&gt;&lt;/div&gt;" style="shape=umlActor;verticalLabelPosition=bottom;verticalAlign=top;html=1;outlineConnect=0;" vertex="1" parent="1">
          <mxGeometry x="90" y="80" width="30" height="60" as="geometry" />
        </mxCell>
      </root>
    </mxGraphModel>
  </diagram>
</mxfile>
